<svg xmlns="http://www.w3.org/2000/svg" width="58" height="34.1" viewBox="0 0 58 34.1"><g transform="translate(-274 -150.4)"><g transform="translate(274 158.574)"><g transform="translate(0 0)"><path d="M197.891,224.828a4.083,4.083,0,1,0,4.047,4.083A4.064,4.064,0,0,0,197.891,224.828Z" transform="translate(-181.224 -213.895)" fill="#d80b24"/><path d="M31.17,62.024H27.353a2.162,2.162,0,0,1-1.972-1.288l-1.142-2.559a2.164,2.164,0,0,0-1.974-1.287h-11.2a2.167,2.167,0,0,0-1.974,1.287L7.953,60.736A2.162,2.162,0,0,1,5.98,62.024H2.164A2.173,2.173,0,0,0,0,64.206V80.634a2.173,2.173,0,0,0,2.164,2.182H31.17a2.174,2.174,0,0,0,2.164-2.182V64.206A2.174,2.174,0,0,0,31.17,62.024Zm-14.5,17.454a7.572,7.572,0,1,1,7.506-7.571A7.538,7.538,0,0,1,16.667,79.478Z" transform="translate(0 -56.89)" fill="#d80b24"/></g></g><g transform="translate(303.5 123.578)"><path d="M179.461,416.756a1.9,1.9,0,1,0,1.9,1.905A1.9,1.9,0,0,0,179.461,416.756Z" transform="translate(-167.673 -368.229)" fill="#d80b24"/><path d="M370.653,416.756a1.9,1.9,0,1,0,1.9,1.905A1.9,1.9,0,0,0,370.653,416.756Z" transform="translate(-348.223 -368.229)" fill="#d80b24"/><path d="M8.428,32.513,7.35,28.248.036,26.822,0,27.008v2.8l4.961.967L9.076,47.054H25.149L28.5,33.426ZM22.849,44.12H11.361L9.179,35.484l15.619.711Z" transform="translate(0 0)" fill="#d80b24"/></g></g></svg>