<svg xmlns="http://www.w3.org/2000/svg" width="51.158" height="33" viewBox="0 0 51.158 33"><g transform="translate(-765 -160.5)"><g transform="translate(765 169.735)"><path d="M197.553,224.828a3.743,3.743,0,1,0,3.709,3.743A3.726,3.726,0,0,0,197.553,224.828Z" transform="translate(-182.276 -214.806)" fill="#d80b24"/><path d="M28.572,61.6h-3.5a1.982,1.982,0,0,1-1.808-1.181L22.218,58.07a1.984,1.984,0,0,0-1.809-1.18H10.146a1.986,1.986,0,0,0-1.81,1.18L7.29,60.416A1.982,1.982,0,0,1,5.482,61.6h-3.5A1.992,1.992,0,0,0,0,63.6V78.655a1.992,1.992,0,0,0,1.983,2H28.572a1.993,1.993,0,0,0,1.983-2V63.6A1.993,1.993,0,0,0,28.572,61.6Zm-13.294,16a6.941,6.941,0,1,1,6.881-6.94A6.91,6.91,0,0,1,15.278,77.6Z" transform="translate(0 -56.89)" fill="#d80b24"/></g><g transform="translate(788.056 160.5)"><line x1="14.667" y1="14.667" transform="translate(12.375 12.375)" fill="#fff" stroke="#d80b24" stroke-width="3"/><g transform="translate(-0.458)" fill="#fff" stroke="#d80b24" stroke-width="3"><circle cx="11" cy="11" r="11" stroke="none"/><circle cx="11" cy="11" r="9.5" fill="none"/></g></g></g></svg>