<svg xmlns="http://www.w3.org/2000/svg" width="120" height="120" viewBox="0 0 120 120">
  <g id="グループ_3388" data-name="グループ 3388" transform="translate(-48 -609)">
    <rect id="長方形_788" data-name="長方形 788" width="120" height="120" transform="translate(48 609)" fill="#fff"/>
    <path id="hand-holding-heart-solid" d="M38.712,35.207a2.45,2.45,0,0,0,3.586,0L57.612,19.148a11.656,11.656,0,0,0-.787-16.706A10.689,10.689,0,0,0,42.073,3.525L40.5,5.17,38.937,3.539a10.677,10.677,0,0,0-14.751-1.1A11.668,11.668,0,0,0,23.4,19.148Zm40.78,10.912a4.655,4.655,0,0,0-5.99,0L60.508,56.51a8.953,8.953,0,0,1-5.625,1.969H38.248a2.25,2.25,0,1,1,0-4.5h11.01a4.682,4.682,0,0,0,4.683-3.74A4.505,4.505,0,0,0,49.5,44.98H27a16.55,16.55,0,0,0-10.42,3.7l-6.539,5.3H2.25A2.257,2.257,0,0,0,0,56.229v13.5a2.257,2.257,0,0,0,2.25,2.25H52.423a9.011,9.011,0,0,0,5.625-1.969L79.309,52.995A4.5,4.5,0,0,0,79.492,46.119Z" transform="translate(67 643.021)"/>
  </g>
</svg>
