<?xml version="1.0" encoding="utf-8"?>
<!-- Generator: Adobe Illustrator 23.1.0, SVG Export Plug-In . SVG Version: 6.00 Build 0)  -->
<svg version="1.1" id="_x32_" xmlns="http://www.w3.org/2000/svg" xmlns:xlink="http://www.w3.org/1999/xlink" x="0px" y="0px"
	 viewBox="0 0 512 512" style="enable-background:new 0 0 512 512;" xml:space="preserve">
<style type="text/css">
	.st0{fill:#06A865;}
</style>
<g>
	<path class="st0" d="M459.5,221.4h-1.7c-29,0-52.5-25.8-52.5-57.7v-18.9c0-31.8-23.5-57.7-52.5-57.7H274v366.1h185.5
		c29,0,52.5-25.8,52.5-57.7V279.1C512,247.2,488.5,221.4,459.5,221.4z M319.2,424.8h-25.9v-40.7h25.9V424.8z M319.2,158.8h-25.9
		v-40.7h25.9V158.8z M369.7,424.8h-25.9v-40.7h25.9V424.8z M369.7,158.8h-25.9v-40.7h25.9V158.8z M419.5,424.8h-25.9v-40.7h25.9
		V424.8z M469.2,424.8h-25.9v-40.7h25.9V424.8z"/>
	<rect y="123.8" class="st0" width="253.6" height="296.9"/>
	<rect y="445.1" class="st0" width="253.6" height="32.5"/>
	<polygon class="st0" points="172.7,34.3 75.9,34.3 75.9,66.9 0,66.9 0,99.4 253.6,99.4 253.6,66.9 172.7,66.9 	"/>
</g>
</svg>
