<svg xmlns="http://www.w3.org/2000/svg" width="48.476" height="26.285" viewBox="0 0 48.476 26.285"><path d="M18.833,0H7.316A1.556,1.556,0,0,0,6.241,2.681L7.562,3.944c-.382.116-.781.24-1.182.366C2.706,5.463,2.063,5.816,1.75,6.122A4.157,4.157,0,0,0,0,9.744v6.8a4.156,4.156,0,0,0,1.75,3.622c.314.305.956.659,4.629,1.813.4.126.8.25,1.182.366L6.24,23.6a1.556,1.556,0,0,0,1.075,2.681H18.833a1.556,1.556,0,0,0,1.556-1.556V1.556A1.556,1.556,0,0,0,18.833,0Z" fill="#222"/><path d="M303.823,29H291.9a1.556,1.556,0,0,0-1.556,1.556V48.98a1.556,1.556,0,0,0,1.556,1.556h11.927a1.556,1.556,0,0,0,1.556-1.556V30.556A1.556,1.556,0,0,0,303.823,29ZM298.1,43.821a.819.819,0,0,1-.819.819H295.14a.819.819,0,0,1-.819-.819V35.715a.819.819,0,0,1,.819-.819h2.141a.819.819,0,0,1,.819.819Z" transform="translate(-266.566 -26.625)" fill="#222"/><path d="M518.832,46.213l-3.3-1.811a1.233,1.233,0,0,0-.591-.151h-.714A1.229,1.229,0,0,0,513,45.478V62.14a1.229,1.229,0,0,0,1.228,1.228h.714a1.233,1.233,0,0,0,.591-.151l3.3-1.811a1.227,1.227,0,0,0,.637-1.077V47.29A1.227,1.227,0,0,0,518.832,46.213Z" transform="translate(-470.993 -40.627)" fill="#222"/></svg>